# xmcd CD database file
#
# Track frame offsets:
#	150
#	17700
#	39185
#	52235
#	71252
#	89725
#	110782
#	134202
#	150145
#	163657
#
# Disc length: 2376 seconds
#
# Revision: 0
# Processed by: cddbd v1.5.1PL0 Copyright (c) Steve Scherf et al.
# Submitted via: CDex 1.51
#
DISCID=8609460a
DTITLE=Various Artist - 1996・最新テレビまんが大行進●女の子向け Disc1
DYEAR=1996
DGENRE=Anime
TTITLE0=花沢加絵／セーラースターズソング／「美少女戦士セーラームーン　セーラースターズ」から
TTITLE1=観月ありさ／風も空もきっと・・・／「美少女戦士セーラームーン　セーラースターズ」から
TTITLE2=ムーンリップス／ムーンライト伝説／「美少女戦士セーラームーン　supers」から
TTITLE3=Cripton／CHU-CHU-CHU／「モジャ公」から
TTITLE4=岩男潤子／恋人が宇宙人なら／「モジャ公」から
TTITLE5=米屋純／水色時代／「水色時代」から
TTITLE6=YAG PD(伊賀絵里香・中村美沙・松浦有希子）／約束はAlright!／「水色時代」から
TTITLE7=鎌田弥生／ハミングがきこえる／「ちびまる子ちゃん」から
TTITLE8=KAKO／あっけにとられた時のうた／「ちびまる子ちゃん」から
TTITLE9=プリティ　キャスト／救いのビーナス！／「あにめあさいち」から
EXTD=YEAR: 1996/11/21
EXTT0=
EXTT1=
EXTT2=
EXTT3=
EXTT4=
EXTT5=
EXTT6=
EXTT7=
EXTT8=
EXTT9=
PLAYORDER=
